<mxfile host="app.diagrams.net" modified="2024-06-12T07:48:01.792Z" agent="Mozilla/5.0 (Windows NT 10.0; Win64; x64) AppleWebKit/537.36 (KHTML, like Gecko) Chrome/125.0.0.0 Safari/537.36" etag="mWJ0DMQuIRAvsdU7BhcP" version="24.5.3" type="github" pages="2">
  <diagram name="페이지-1" id="v-7mwcuy40ui787PgBFt">
    <mxGraphModel dx="1302" dy="682" grid="1" gridSize="10" guides="1" tooltips="1" connect="1" arrows="1" fold="1" page="1" pageScale="1" pageWidth="1200" pageHeight="1920" math="0" shadow="0">
      <root>
        <mxCell id="0" />
        <mxCell id="1" parent="0" />
        <mxCell id="UhzemvjQEunhtF-fMPlF-1" value="고객" style="whiteSpace=wrap;html=1;align=center;" parent="1" vertex="1">
          <mxGeometry x="350" y="640" width="120" height="50" as="geometry" />
        </mxCell>
        <mxCell id="UhzemvjQEunhtF-fMPlF-2" value="&lt;u&gt;전화번호&lt;/u&gt;" style="ellipse;whiteSpace=wrap;html=1;align=center;" parent="1" vertex="1">
          <mxGeometry x="314" y="545" width="100" height="40" as="geometry" />
        </mxCell>
        <mxCell id="UhzemvjQEunhtF-fMPlF-3" value="지역" style="ellipse;whiteSpace=wrap;html=1;align=center;" parent="1" vertex="1">
          <mxGeometry x="260" y="770" width="100" height="40" as="geometry" />
        </mxCell>
        <mxCell id="UhzemvjQEunhtF-fMPlF-4" value="&lt;u&gt;고객코드&lt;/u&gt;" style="ellipse;whiteSpace=wrap;html=1;align=center;" parent="1" vertex="1">
          <mxGeometry x="530" y="585" width="100" height="40" as="geometry" />
        </mxCell>
        <mxCell id="UhzemvjQEunhtF-fMPlF-5" value="&lt;u&gt;이메일&lt;/u&gt;" style="ellipse;whiteSpace=wrap;html=1;align=center;" parent="1" vertex="1">
          <mxGeometry x="430" y="550" width="100" height="40" as="geometry" />
        </mxCell>
        <mxCell id="UhzemvjQEunhtF-fMPlF-6" value="고객명" style="ellipse;whiteSpace=wrap;html=1;align=center;" parent="1" vertex="1">
          <mxGeometry x="210" y="565" width="100" height="40" as="geometry" />
        </mxCell>
        <mxCell id="UhzemvjQEunhtF-fMPlF-7" value="주소" style="ellipse;whiteSpace=wrap;html=1;align=center;" parent="1" vertex="1">
          <mxGeometry x="220" y="640" width="100" height="40" as="geometry" />
        </mxCell>
        <mxCell id="UhzemvjQEunhtF-fMPlF-8" value="가입일" style="ellipse;whiteSpace=wrap;html=1;align=center;" parent="1" vertex="1">
          <mxGeometry x="230" y="710" width="100" height="40" as="geometry" />
        </mxCell>
        <mxCell id="UhzemvjQEunhtF-fMPlF-11" value="" style="line;strokeWidth=1;rotatable=0;dashed=0;labelPosition=right;align=left;verticalAlign=middle;spacingTop=0;spacingLeft=6;points=[];portConstraint=eastwest;" parent="1" vertex="1">
          <mxGeometry x="340" y="615" height="5" as="geometry" />
        </mxCell>
        <mxCell id="UhzemvjQEunhtF-fMPlF-14" value="" style="endArrow=none;html=1;rounded=0;" parent="1" source="UhzemvjQEunhtF-fMPlF-6" target="UhzemvjQEunhtF-fMPlF-1" edge="1">
          <mxGeometry relative="1" as="geometry">
            <mxPoint x="410" y="700" as="sourcePoint" />
            <mxPoint x="570" y="700" as="targetPoint" />
          </mxGeometry>
        </mxCell>
        <mxCell id="UhzemvjQEunhtF-fMPlF-15" value="" style="endArrow=none;html=1;rounded=0;entryX=0.858;entryY=-0.029;entryDx=0;entryDy=0;entryPerimeter=0;" parent="1" source="UhzemvjQEunhtF-fMPlF-5" target="UhzemvjQEunhtF-fMPlF-1" edge="1">
          <mxGeometry relative="1" as="geometry">
            <mxPoint x="500" y="620" as="sourcePoint" />
            <mxPoint x="573" y="659" as="targetPoint" />
          </mxGeometry>
        </mxCell>
        <mxCell id="UhzemvjQEunhtF-fMPlF-16" value="" style="endArrow=none;html=1;rounded=0;entryX=0.373;entryY=-0.029;entryDx=0;entryDy=0;entryPerimeter=0;" parent="1" source="UhzemvjQEunhtF-fMPlF-2" target="UhzemvjQEunhtF-fMPlF-1" edge="1">
          <mxGeometry relative="1" as="geometry">
            <mxPoint x="373.5" y="545.5" as="sourcePoint" />
            <mxPoint x="446.5" y="584.5" as="targetPoint" />
          </mxGeometry>
        </mxCell>
        <mxCell id="UhzemvjQEunhtF-fMPlF-17" value="" style="endArrow=none;html=1;rounded=0;" parent="1" source="UhzemvjQEunhtF-fMPlF-1" target="UhzemvjQEunhtF-fMPlF-4" edge="1">
          <mxGeometry relative="1" as="geometry">
            <mxPoint x="470" y="651" as="sourcePoint" />
            <mxPoint x="543" y="690" as="targetPoint" />
          </mxGeometry>
        </mxCell>
        <mxCell id="UhzemvjQEunhtF-fMPlF-18" value="" style="endArrow=none;html=1;rounded=0;" parent="1" source="UhzemvjQEunhtF-fMPlF-7" target="UhzemvjQEunhtF-fMPlF-1" edge="1">
          <mxGeometry relative="1" as="geometry">
            <mxPoint x="330" y="641" as="sourcePoint" />
            <mxPoint x="403" y="680" as="targetPoint" />
          </mxGeometry>
        </mxCell>
        <mxCell id="UhzemvjQEunhtF-fMPlF-19" value="" style="endArrow=none;html=1;rounded=0;exitX=0.5;exitY=0;exitDx=0;exitDy=0;" parent="1" source="UhzemvjQEunhtF-fMPlF-8" target="UhzemvjQEunhtF-fMPlF-1" edge="1">
          <mxGeometry relative="1" as="geometry">
            <mxPoint x="340" y="651" as="sourcePoint" />
            <mxPoint x="413" y="690" as="targetPoint" />
          </mxGeometry>
        </mxCell>
        <mxCell id="UhzemvjQEunhtF-fMPlF-21" value="" style="endArrow=none;html=1;rounded=0;" parent="1" source="UhzemvjQEunhtF-fMPlF-3" target="UhzemvjQEunhtF-fMPlF-1" edge="1">
          <mxGeometry relative="1" as="geometry">
            <mxPoint x="290" y="720" as="sourcePoint" />
            <mxPoint x="360" y="696" as="targetPoint" />
          </mxGeometry>
        </mxCell>
        <mxCell id="UhzemvjQEunhtF-fMPlF-22" value="지역" style="whiteSpace=wrap;html=1;align=center;" parent="1" vertex="1">
          <mxGeometry x="340" y="930" width="120" height="50" as="geometry" />
        </mxCell>
        <mxCell id="UhzemvjQEunhtF-fMPlF-24" value="지역코드" style="ellipse;whiteSpace=wrap;html=1;align=center;" parent="1" vertex="1">
          <mxGeometry x="220" y="990" width="100" height="40" as="geometry" />
        </mxCell>
        <mxCell id="UhzemvjQEunhtF-fMPlF-25" value="지역명" style="ellipse;whiteSpace=wrap;html=1;align=center;" parent="1" vertex="1">
          <mxGeometry x="220" y="920" width="100" height="40" as="geometry" />
        </mxCell>
        <mxCell id="UhzemvjQEunhtF-fMPlF-26" value="" style="endArrow=none;html=1;rounded=0;" parent="1" source="UhzemvjQEunhtF-fMPlF-24" target="UhzemvjQEunhtF-fMPlF-22" edge="1">
          <mxGeometry relative="1" as="geometry">
            <mxPoint x="312" y="990" as="sourcePoint" />
            <mxPoint x="320" y="960" as="targetPoint" />
          </mxGeometry>
        </mxCell>
        <mxCell id="UhzemvjQEunhtF-fMPlF-27" value="" style="endArrow=none;html=1;rounded=0;" parent="1" source="UhzemvjQEunhtF-fMPlF-22" target="UhzemvjQEunhtF-fMPlF-25" edge="1">
          <mxGeometry relative="1" as="geometry">
            <mxPoint x="375" y="860" as="sourcePoint" />
            <mxPoint x="383" y="830" as="targetPoint" />
          </mxGeometry>
        </mxCell>
        <mxCell id="UhzemvjQEunhtF-fMPlF-29" value="제품" style="whiteSpace=wrap;html=1;align=center;" parent="1" vertex="1">
          <mxGeometry x="850" y="655" width="120" height="50" as="geometry" />
        </mxCell>
        <mxCell id="UhzemvjQEunhtF-fMPlF-30" value="&lt;u&gt;제품코드&lt;/u&gt;" style="ellipse;whiteSpace=wrap;html=1;align=center;" parent="1" vertex="1">
          <mxGeometry x="740" y="575" width="100" height="40" as="geometry" />
        </mxCell>
        <mxCell id="UhzemvjQEunhtF-fMPlF-31" value="제품가격" style="ellipse;whiteSpace=wrap;html=1;align=center;" parent="1" vertex="1">
          <mxGeometry x="1010" y="705" width="100" height="40" as="geometry" />
        </mxCell>
        <mxCell id="UhzemvjQEunhtF-fMPlF-34" value="제품 구분" style="ellipse;whiteSpace=wrap;html=1;align=center;" parent="1" vertex="1">
          <mxGeometry x="980" y="575" width="100" height="40" as="geometry" />
        </mxCell>
        <mxCell id="UhzemvjQEunhtF-fMPlF-35" value="제품명" style="ellipse;whiteSpace=wrap;html=1;align=center;" parent="1" vertex="1">
          <mxGeometry x="860" y="565" width="100" height="40" as="geometry" />
        </mxCell>
        <mxCell id="UhzemvjQEunhtF-fMPlF-36" value="" style="endArrow=none;html=1;rounded=0;" parent="1" source="UhzemvjQEunhtF-fMPlF-30" target="UhzemvjQEunhtF-fMPlF-29" edge="1">
          <mxGeometry relative="1" as="geometry">
            <mxPoint x="830" y="615" as="sourcePoint" />
            <mxPoint x="903" y="589" as="targetPoint" />
          </mxGeometry>
        </mxCell>
        <mxCell id="UhzemvjQEunhtF-fMPlF-37" value="" style="endArrow=none;html=1;rounded=0;" parent="1" source="UhzemvjQEunhtF-fMPlF-34" target="UhzemvjQEunhtF-fMPlF-29" edge="1">
          <mxGeometry relative="1" as="geometry">
            <mxPoint x="999.5" y="635" as="sourcePoint" />
            <mxPoint x="1060.5" y="678" as="targetPoint" />
          </mxGeometry>
        </mxCell>
        <mxCell id="UhzemvjQEunhtF-fMPlF-38" value="" style="endArrow=none;html=1;rounded=0;" parent="1" source="UhzemvjQEunhtF-fMPlF-40" target="UhzemvjQEunhtF-fMPlF-29" edge="1">
          <mxGeometry relative="1" as="geometry">
            <mxPoint x="834" y="632" as="sourcePoint" />
            <mxPoint x="895" y="675" as="targetPoint" />
          </mxGeometry>
        </mxCell>
        <mxCell id="UhzemvjQEunhtF-fMPlF-39" value="" style="endArrow=none;html=1;rounded=0;" parent="1" source="UhzemvjQEunhtF-fMPlF-35" target="UhzemvjQEunhtF-fMPlF-29" edge="1">
          <mxGeometry relative="1" as="geometry">
            <mxPoint x="899" y="595" as="sourcePoint" />
            <mxPoint x="900" y="645" as="targetPoint" />
          </mxGeometry>
        </mxCell>
        <mxCell id="UhzemvjQEunhtF-fMPlF-40" value="제품 색상" style="ellipse;shape=doubleEllipse;margin=3;whiteSpace=wrap;html=1;align=center;" parent="1" vertex="1">
          <mxGeometry x="1020" y="635" width="100" height="40" as="geometry" />
        </mxCell>
        <mxCell id="UhzemvjQEunhtF-fMPlF-41" value="" style="endArrow=none;html=1;rounded=0;" parent="1" source="UhzemvjQEunhtF-fMPlF-31" target="UhzemvjQEunhtF-fMPlF-29" edge="1">
          <mxGeometry relative="1" as="geometry">
            <mxPoint x="1033" y="672" as="sourcePoint" />
            <mxPoint x="980" y="681" as="targetPoint" />
          </mxGeometry>
        </mxCell>
        <mxCell id="4gRsntanc7nwzPrsG039-2" value="관리" style="shape=rhombus;perimeter=rhombusPerimeter;whiteSpace=wrap;html=1;align=center;" parent="1" vertex="1">
          <mxGeometry x="390" y="790" width="120" height="60" as="geometry" />
        </mxCell>
        <mxCell id="4gRsntanc7nwzPrsG039-3" value="" style="endArrow=none;html=1;rounded=0;" parent="1" source="4gRsntanc7nwzPrsG039-2" target="UhzemvjQEunhtF-fMPlF-1" edge="1">
          <mxGeometry relative="1" as="geometry">
            <mxPoint x="405" y="730" as="sourcePoint" />
            <mxPoint x="413" y="700" as="targetPoint" />
          </mxGeometry>
        </mxCell>
        <mxCell id="4gRsntanc7nwzPrsG039-5" value="N" style="edgeLabel;html=1;align=center;verticalAlign=middle;resizable=0;points=[];" parent="4gRsntanc7nwzPrsG039-3" vertex="1" connectable="0">
          <mxGeometry x="0.0819" y="1" relative="1" as="geometry">
            <mxPoint x="22" y="37" as="offset" />
          </mxGeometry>
        </mxCell>
        <mxCell id="4gRsntanc7nwzPrsG039-4" value="" style="endArrow=none;html=1;rounded=0;" parent="1" source="4gRsntanc7nwzPrsG039-2" target="UhzemvjQEunhtF-fMPlF-22" edge="1">
          <mxGeometry relative="1" as="geometry">
            <mxPoint x="496" y="797" as="sourcePoint" />
            <mxPoint x="400" y="920" as="targetPoint" />
          </mxGeometry>
        </mxCell>
        <mxCell id="4gRsntanc7nwzPrsG039-6" value="1" style="edgeLabel;html=1;align=center;verticalAlign=middle;resizable=0;points=[];" parent="4gRsntanc7nwzPrsG039-4" vertex="1" connectable="0">
          <mxGeometry x="0.2909" y="3" relative="1" as="geometry">
            <mxPoint x="27" y="-41" as="offset" />
          </mxGeometry>
        </mxCell>
        <mxCell id="4gRsntanc7nwzPrsG039-7" value="구매" style="shape=rhombus;perimeter=rhombusPerimeter;whiteSpace=wrap;html=1;align=center;" parent="1" vertex="1">
          <mxGeometry x="610" y="710" width="120" height="60" as="geometry" />
        </mxCell>
        <mxCell id="4gRsntanc7nwzPrsG039-8" value="&lt;u&gt;구매번호&lt;/u&gt;" style="ellipse;whiteSpace=wrap;html=1;align=center;" parent="1" vertex="1">
          <mxGeometry x="640" y="655" width="100" height="40" as="geometry" />
        </mxCell>
        <mxCell id="4gRsntanc7nwzPrsG039-9" value="수량" style="ellipse;whiteSpace=wrap;html=1;align=center;" parent="1" vertex="1">
          <mxGeometry x="720" y="770" width="100" height="40" as="geometry" />
        </mxCell>
        <mxCell id="4gRsntanc7nwzPrsG039-11" value="구매일자" style="ellipse;whiteSpace=wrap;html=1;align=center;" parent="1" vertex="1">
          <mxGeometry x="570" y="770" width="100" height="40" as="geometry" />
        </mxCell>
        <mxCell id="4gRsntanc7nwzPrsG039-12" value="" style="endArrow=none;html=1;rounded=0;exitX=1;exitY=0.5;exitDx=0;exitDy=0;entryX=0.192;entryY=0.325;entryDx=0;entryDy=0;entryPerimeter=0;" parent="1" source="UhzemvjQEunhtF-fMPlF-1" target="4gRsntanc7nwzPrsG039-7" edge="1">
          <mxGeometry relative="1" as="geometry">
            <mxPoint x="510" y="678" as="sourcePoint" />
            <mxPoint x="620" y="690" as="targetPoint" />
          </mxGeometry>
        </mxCell>
        <mxCell id="4gRsntanc7nwzPrsG039-17" value="N" style="edgeLabel;html=1;align=center;verticalAlign=middle;resizable=0;points=[];" parent="4gRsntanc7nwzPrsG039-12" vertex="1" connectable="0">
          <mxGeometry x="0.2286" y="4" relative="1" as="geometry">
            <mxPoint x="38" y="4" as="offset" />
          </mxGeometry>
        </mxCell>
        <mxCell id="4gRsntanc7nwzPrsG039-13" value="" style="endArrow=none;html=1;rounded=0;" parent="1" source="4gRsntanc7nwzPrsG039-9" target="4gRsntanc7nwzPrsG039-7" edge="1">
          <mxGeometry relative="1" as="geometry">
            <mxPoint x="520" y="688" as="sourcePoint" />
            <mxPoint x="680" y="700" as="targetPoint" />
          </mxGeometry>
        </mxCell>
        <mxCell id="4gRsntanc7nwzPrsG039-14" value="" style="endArrow=none;html=1;rounded=0;" parent="1" source="4gRsntanc7nwzPrsG039-11" target="4gRsntanc7nwzPrsG039-7" edge="1">
          <mxGeometry relative="1" as="geometry">
            <mxPoint x="530" y="698" as="sourcePoint" />
            <mxPoint x="603" y="672" as="targetPoint" />
          </mxGeometry>
        </mxCell>
        <mxCell id="4gRsntanc7nwzPrsG039-15" value="" style="endArrow=none;html=1;rounded=0;" parent="1" source="4gRsntanc7nwzPrsG039-8" target="4gRsntanc7nwzPrsG039-7" edge="1">
          <mxGeometry relative="1" as="geometry">
            <mxPoint x="540" y="708" as="sourcePoint" />
            <mxPoint x="613" y="682" as="targetPoint" />
          </mxGeometry>
        </mxCell>
        <mxCell id="4gRsntanc7nwzPrsG039-16" value="" style="endArrow=none;html=1;rounded=0;" parent="1" source="4gRsntanc7nwzPrsG039-7" target="UhzemvjQEunhtF-fMPlF-29" edge="1">
          <mxGeometry relative="1" as="geometry">
            <mxPoint x="680" y="630" as="sourcePoint" />
            <mxPoint x="850" y="540" as="targetPoint" />
          </mxGeometry>
        </mxCell>
        <mxCell id="4gRsntanc7nwzPrsG039-18" value="M" style="edgeLabel;html=1;align=center;verticalAlign=middle;resizable=0;points=[];" parent="4gRsntanc7nwzPrsG039-16" vertex="1" connectable="0">
          <mxGeometry x="-0.021" y="-3" relative="1" as="geometry">
            <mxPoint x="-50" y="-6" as="offset" />
          </mxGeometry>
        </mxCell>
        <mxCell id="c5d-H1XPSouWsE6KoqJY-1" value="상세 주소" style="ellipse;whiteSpace=wrap;html=1;align=center;" vertex="1" parent="1">
          <mxGeometry x="100" y="680" width="100" height="40" as="geometry" />
        </mxCell>
        <mxCell id="c5d-H1XPSouWsE6KoqJY-2" value="기본 주소" style="ellipse;whiteSpace=wrap;html=1;align=center;" vertex="1" parent="1">
          <mxGeometry x="100" y="615" width="100" height="40" as="geometry" />
        </mxCell>
        <mxCell id="c5d-H1XPSouWsE6KoqJY-3" value="" style="endArrow=none;html=1;rounded=0;" edge="1" parent="1" source="c5d-H1XPSouWsE6KoqJY-2" target="UhzemvjQEunhtF-fMPlF-7">
          <mxGeometry relative="1" as="geometry">
            <mxPoint x="300" y="611" as="sourcePoint" />
            <mxPoint x="373" y="650" as="targetPoint" />
          </mxGeometry>
        </mxCell>
        <mxCell id="c5d-H1XPSouWsE6KoqJY-4" value="" style="endArrow=none;html=1;rounded=0;" edge="1" parent="1" source="c5d-H1XPSouWsE6KoqJY-1" target="UhzemvjQEunhtF-fMPlF-7">
          <mxGeometry relative="1" as="geometry">
            <mxPoint x="205" y="654" as="sourcePoint" />
            <mxPoint x="236" y="661" as="targetPoint" />
          </mxGeometry>
        </mxCell>
      </root>
    </mxGraphModel>
  </diagram>
  <diagram id="cxqEBSKkc5f9KQl5p8e0" name="페이지-2">
    <mxGraphModel dx="1077" dy="564" grid="1" gridSize="10" guides="1" tooltips="1" connect="1" arrows="1" fold="1" page="1" pageScale="1" pageWidth="827" pageHeight="1169" math="0" shadow="0">
      <root>
        <mxCell id="0" />
        <mxCell id="1" parent="0" />
        <mxCell id="OZ4eQoqyO7t-_9fUV_E0-1" value="고객" style="shape=table;startSize=30;container=1;collapsible=1;childLayout=tableLayout;fixedRows=1;rowLines=0;fontStyle=1;align=center;resizeLast=1;html=1;" vertex="1" parent="1">
          <mxGeometry x="80" y="320" width="180" height="270" as="geometry" />
        </mxCell>
        <mxCell id="OZ4eQoqyO7t-_9fUV_E0-79" value="" style="shape=tableRow;horizontal=0;startSize=0;swimlaneHead=0;swimlaneBody=0;fillColor=none;collapsible=0;dropTarget=0;points=[[0,0.5],[1,0.5]];portConstraint=eastwest;top=0;left=0;right=0;bottom=1;" vertex="1" parent="OZ4eQoqyO7t-_9fUV_E0-1">
          <mxGeometry y="30" width="180" height="30" as="geometry" />
        </mxCell>
        <mxCell id="OZ4eQoqyO7t-_9fUV_E0-80" value="PK" style="shape=partialRectangle;connectable=0;fillColor=none;top=0;left=0;bottom=0;right=0;fontStyle=1;overflow=hidden;whiteSpace=wrap;html=1;" vertex="1" parent="OZ4eQoqyO7t-_9fUV_E0-79">
          <mxGeometry width="30" height="30" as="geometry">
            <mxRectangle width="30" height="30" as="alternateBounds" />
          </mxGeometry>
        </mxCell>
        <mxCell id="OZ4eQoqyO7t-_9fUV_E0-81" value="고객코드" style="shape=partialRectangle;connectable=0;fillColor=none;top=0;left=0;bottom=0;right=0;align=left;spacingLeft=6;fontStyle=5;overflow=hidden;whiteSpace=wrap;html=1;" vertex="1" parent="OZ4eQoqyO7t-_9fUV_E0-79">
          <mxGeometry x="30" width="150" height="30" as="geometry">
            <mxRectangle width="150" height="30" as="alternateBounds" />
          </mxGeometry>
        </mxCell>
        <mxCell id="OZ4eQoqyO7t-_9fUV_E0-2" value="" style="shape=tableRow;horizontal=0;startSize=0;swimlaneHead=0;swimlaneBody=0;fillColor=none;collapsible=0;dropTarget=0;points=[[0,0.5],[1,0.5]];portConstraint=eastwest;top=0;left=0;right=0;bottom=1;" vertex="1" parent="OZ4eQoqyO7t-_9fUV_E0-1">
          <mxGeometry y="60" width="180" height="30" as="geometry" />
        </mxCell>
        <mxCell id="OZ4eQoqyO7t-_9fUV_E0-3" value="FK" style="shape=partialRectangle;connectable=0;fillColor=none;top=0;left=0;bottom=0;right=0;fontStyle=1;overflow=hidden;whiteSpace=wrap;html=1;" vertex="1" parent="OZ4eQoqyO7t-_9fUV_E0-2">
          <mxGeometry width="30" height="30" as="geometry">
            <mxRectangle width="30" height="30" as="alternateBounds" />
          </mxGeometry>
        </mxCell>
        <mxCell id="OZ4eQoqyO7t-_9fUV_E0-4" value="지역코드" style="shape=partialRectangle;connectable=0;fillColor=none;top=0;left=0;bottom=0;right=0;align=left;spacingLeft=6;fontStyle=5;overflow=hidden;whiteSpace=wrap;html=1;" vertex="1" parent="OZ4eQoqyO7t-_9fUV_E0-2">
          <mxGeometry x="30" width="150" height="30" as="geometry">
            <mxRectangle width="150" height="30" as="alternateBounds" />
          </mxGeometry>
        </mxCell>
        <mxCell id="OZ4eQoqyO7t-_9fUV_E0-5" value="" style="shape=tableRow;horizontal=0;startSize=0;swimlaneHead=0;swimlaneBody=0;fillColor=none;collapsible=0;dropTarget=0;points=[[0,0.5],[1,0.5]];portConstraint=eastwest;top=0;left=0;right=0;bottom=0;" vertex="1" parent="OZ4eQoqyO7t-_9fUV_E0-1">
          <mxGeometry y="90" width="180" height="30" as="geometry" />
        </mxCell>
        <mxCell id="OZ4eQoqyO7t-_9fUV_E0-6" value="" style="shape=partialRectangle;connectable=0;fillColor=none;top=0;left=0;bottom=0;right=0;editable=1;overflow=hidden;whiteSpace=wrap;html=1;" vertex="1" parent="OZ4eQoqyO7t-_9fUV_E0-5">
          <mxGeometry width="30" height="30" as="geometry">
            <mxRectangle width="30" height="30" as="alternateBounds" />
          </mxGeometry>
        </mxCell>
        <mxCell id="OZ4eQoqyO7t-_9fUV_E0-7" value="고객이름" style="shape=partialRectangle;connectable=0;fillColor=none;top=0;left=0;bottom=0;right=0;align=left;spacingLeft=6;overflow=hidden;whiteSpace=wrap;html=1;" vertex="1" parent="OZ4eQoqyO7t-_9fUV_E0-5">
          <mxGeometry x="30" width="150" height="30" as="geometry">
            <mxRectangle width="150" height="30" as="alternateBounds" />
          </mxGeometry>
        </mxCell>
        <mxCell id="OZ4eQoqyO7t-_9fUV_E0-8" value="" style="shape=tableRow;horizontal=0;startSize=0;swimlaneHead=0;swimlaneBody=0;fillColor=none;collapsible=0;dropTarget=0;points=[[0,0.5],[1,0.5]];portConstraint=eastwest;top=0;left=0;right=0;bottom=0;" vertex="1" parent="OZ4eQoqyO7t-_9fUV_E0-1">
          <mxGeometry y="120" width="180" height="30" as="geometry" />
        </mxCell>
        <mxCell id="OZ4eQoqyO7t-_9fUV_E0-9" value="" style="shape=partialRectangle;connectable=0;fillColor=none;top=0;left=0;bottom=0;right=0;editable=1;overflow=hidden;whiteSpace=wrap;html=1;" vertex="1" parent="OZ4eQoqyO7t-_9fUV_E0-8">
          <mxGeometry width="30" height="30" as="geometry">
            <mxRectangle width="30" height="30" as="alternateBounds" />
          </mxGeometry>
        </mxCell>
        <mxCell id="OZ4eQoqyO7t-_9fUV_E0-10" value="전화번호" style="shape=partialRectangle;connectable=0;fillColor=none;top=0;left=0;bottom=0;right=0;align=left;spacingLeft=6;overflow=hidden;whiteSpace=wrap;html=1;" vertex="1" parent="OZ4eQoqyO7t-_9fUV_E0-8">
          <mxGeometry x="30" width="150" height="30" as="geometry">
            <mxRectangle width="150" height="30" as="alternateBounds" />
          </mxGeometry>
        </mxCell>
        <mxCell id="OZ4eQoqyO7t-_9fUV_E0-11" value="" style="shape=tableRow;horizontal=0;startSize=0;swimlaneHead=0;swimlaneBody=0;fillColor=none;collapsible=0;dropTarget=0;points=[[0,0.5],[1,0.5]];portConstraint=eastwest;top=0;left=0;right=0;bottom=0;" vertex="1" parent="OZ4eQoqyO7t-_9fUV_E0-1">
          <mxGeometry y="150" width="180" height="30" as="geometry" />
        </mxCell>
        <mxCell id="OZ4eQoqyO7t-_9fUV_E0-12" value="" style="shape=partialRectangle;connectable=0;fillColor=none;top=0;left=0;bottom=0;right=0;editable=1;overflow=hidden;whiteSpace=wrap;html=1;" vertex="1" parent="OZ4eQoqyO7t-_9fUV_E0-11">
          <mxGeometry width="30" height="30" as="geometry">
            <mxRectangle width="30" height="30" as="alternateBounds" />
          </mxGeometry>
        </mxCell>
        <mxCell id="OZ4eQoqyO7t-_9fUV_E0-13" value="이메일" style="shape=partialRectangle;connectable=0;fillColor=none;top=0;left=0;bottom=0;right=0;align=left;spacingLeft=6;overflow=hidden;whiteSpace=wrap;html=1;" vertex="1" parent="OZ4eQoqyO7t-_9fUV_E0-11">
          <mxGeometry x="30" width="150" height="30" as="geometry">
            <mxRectangle width="150" height="30" as="alternateBounds" />
          </mxGeometry>
        </mxCell>
        <mxCell id="OZ4eQoqyO7t-_9fUV_E0-16" value="" style="shape=tableRow;horizontal=0;startSize=0;swimlaneHead=0;swimlaneBody=0;fillColor=none;collapsible=0;dropTarget=0;points=[[0,0.5],[1,0.5]];portConstraint=eastwest;top=0;left=0;right=0;bottom=0;" vertex="1" parent="OZ4eQoqyO7t-_9fUV_E0-1">
          <mxGeometry y="180" width="180" height="30" as="geometry" />
        </mxCell>
        <mxCell id="OZ4eQoqyO7t-_9fUV_E0-17" value="" style="shape=partialRectangle;connectable=0;fillColor=none;top=0;left=0;bottom=0;right=0;editable=1;overflow=hidden;whiteSpace=wrap;html=1;" vertex="1" parent="OZ4eQoqyO7t-_9fUV_E0-16">
          <mxGeometry width="30" height="30" as="geometry">
            <mxRectangle width="30" height="30" as="alternateBounds" />
          </mxGeometry>
        </mxCell>
        <mxCell id="OZ4eQoqyO7t-_9fUV_E0-18" value="기본주소" style="shape=partialRectangle;connectable=0;fillColor=none;top=0;left=0;bottom=0;right=0;align=left;spacingLeft=6;overflow=hidden;whiteSpace=wrap;html=1;" vertex="1" parent="OZ4eQoqyO7t-_9fUV_E0-16">
          <mxGeometry x="30" width="150" height="30" as="geometry">
            <mxRectangle width="150" height="30" as="alternateBounds" />
          </mxGeometry>
        </mxCell>
        <mxCell id="OZ4eQoqyO7t-_9fUV_E0-19" value="" style="shape=tableRow;horizontal=0;startSize=0;swimlaneHead=0;swimlaneBody=0;fillColor=none;collapsible=0;dropTarget=0;points=[[0,0.5],[1,0.5]];portConstraint=eastwest;top=0;left=0;right=0;bottom=0;" vertex="1" parent="OZ4eQoqyO7t-_9fUV_E0-1">
          <mxGeometry y="210" width="180" height="30" as="geometry" />
        </mxCell>
        <mxCell id="OZ4eQoqyO7t-_9fUV_E0-20" value="" style="shape=partialRectangle;connectable=0;fillColor=none;top=0;left=0;bottom=0;right=0;editable=1;overflow=hidden;whiteSpace=wrap;html=1;" vertex="1" parent="OZ4eQoqyO7t-_9fUV_E0-19">
          <mxGeometry width="30" height="30" as="geometry">
            <mxRectangle width="30" height="30" as="alternateBounds" />
          </mxGeometry>
        </mxCell>
        <mxCell id="OZ4eQoqyO7t-_9fUV_E0-21" value="상세주소" style="shape=partialRectangle;connectable=0;fillColor=none;top=0;left=0;bottom=0;right=0;align=left;spacingLeft=6;overflow=hidden;whiteSpace=wrap;html=1;" vertex="1" parent="OZ4eQoqyO7t-_9fUV_E0-19">
          <mxGeometry x="30" width="150" height="30" as="geometry">
            <mxRectangle width="150" height="30" as="alternateBounds" />
          </mxGeometry>
        </mxCell>
        <mxCell id="OZ4eQoqyO7t-_9fUV_E0-22" value="" style="shape=tableRow;horizontal=0;startSize=0;swimlaneHead=0;swimlaneBody=0;fillColor=none;collapsible=0;dropTarget=0;points=[[0,0.5],[1,0.5]];portConstraint=eastwest;top=0;left=0;right=0;bottom=0;" vertex="1" parent="OZ4eQoqyO7t-_9fUV_E0-1">
          <mxGeometry y="240" width="180" height="30" as="geometry" />
        </mxCell>
        <mxCell id="OZ4eQoqyO7t-_9fUV_E0-23" value="" style="shape=partialRectangle;connectable=0;fillColor=none;top=0;left=0;bottom=0;right=0;editable=1;overflow=hidden;whiteSpace=wrap;html=1;" vertex="1" parent="OZ4eQoqyO7t-_9fUV_E0-22">
          <mxGeometry width="30" height="30" as="geometry">
            <mxRectangle width="30" height="30" as="alternateBounds" />
          </mxGeometry>
        </mxCell>
        <mxCell id="OZ4eQoqyO7t-_9fUV_E0-24" value="가입일" style="shape=partialRectangle;connectable=0;fillColor=none;top=0;left=0;bottom=0;right=0;align=left;spacingLeft=6;overflow=hidden;whiteSpace=wrap;html=1;" vertex="1" parent="OZ4eQoqyO7t-_9fUV_E0-22">
          <mxGeometry x="30" width="150" height="30" as="geometry">
            <mxRectangle width="150" height="30" as="alternateBounds" />
          </mxGeometry>
        </mxCell>
        <mxCell id="OZ4eQoqyO7t-_9fUV_E0-25" value="구매" style="shape=table;startSize=30;container=1;collapsible=1;childLayout=tableLayout;fixedRows=1;rowLines=0;fontStyle=1;align=center;resizeLast=1;html=1;" vertex="1" parent="1">
          <mxGeometry x="350" y="320" width="180" height="120" as="geometry" />
        </mxCell>
        <mxCell id="OZ4eQoqyO7t-_9fUV_E0-26" value="" style="shape=tableRow;horizontal=0;startSize=0;swimlaneHead=0;swimlaneBody=0;fillColor=none;collapsible=0;dropTarget=0;points=[[0,0.5],[1,0.5]];portConstraint=eastwest;top=0;left=0;right=0;bottom=1;" vertex="1" parent="OZ4eQoqyO7t-_9fUV_E0-25">
          <mxGeometry y="30" width="180" height="30" as="geometry" />
        </mxCell>
        <mxCell id="OZ4eQoqyO7t-_9fUV_E0-27" value="PK" style="shape=partialRectangle;connectable=0;fillColor=none;top=0;left=0;bottom=0;right=0;fontStyle=1;overflow=hidden;whiteSpace=wrap;html=1;" vertex="1" parent="OZ4eQoqyO7t-_9fUV_E0-26">
          <mxGeometry width="30" height="30" as="geometry">
            <mxRectangle width="30" height="30" as="alternateBounds" />
          </mxGeometry>
        </mxCell>
        <mxCell id="OZ4eQoqyO7t-_9fUV_E0-28" value="구매번호" style="shape=partialRectangle;connectable=0;fillColor=none;top=0;left=0;bottom=0;right=0;align=left;spacingLeft=6;fontStyle=5;overflow=hidden;whiteSpace=wrap;html=1;" vertex="1" parent="OZ4eQoqyO7t-_9fUV_E0-26">
          <mxGeometry x="30" width="150" height="30" as="geometry">
            <mxRectangle width="150" height="30" as="alternateBounds" />
          </mxGeometry>
        </mxCell>
        <mxCell id="OZ4eQoqyO7t-_9fUV_E0-29" value="" style="shape=tableRow;horizontal=0;startSize=0;swimlaneHead=0;swimlaneBody=0;fillColor=none;collapsible=0;dropTarget=0;points=[[0,0.5],[1,0.5]];portConstraint=eastwest;top=0;left=0;right=0;bottom=0;" vertex="1" parent="OZ4eQoqyO7t-_9fUV_E0-25">
          <mxGeometry y="60" width="180" height="30" as="geometry" />
        </mxCell>
        <mxCell id="OZ4eQoqyO7t-_9fUV_E0-30" value="" style="shape=partialRectangle;connectable=0;fillColor=none;top=0;left=0;bottom=0;right=0;editable=1;overflow=hidden;whiteSpace=wrap;html=1;" vertex="1" parent="OZ4eQoqyO7t-_9fUV_E0-29">
          <mxGeometry width="30" height="30" as="geometry">
            <mxRectangle width="30" height="30" as="alternateBounds" />
          </mxGeometry>
        </mxCell>
        <mxCell id="OZ4eQoqyO7t-_9fUV_E0-31" value="수량" style="shape=partialRectangle;connectable=0;fillColor=none;top=0;left=0;bottom=0;right=0;align=left;spacingLeft=6;overflow=hidden;whiteSpace=wrap;html=1;" vertex="1" parent="OZ4eQoqyO7t-_9fUV_E0-29">
          <mxGeometry x="30" width="150" height="30" as="geometry">
            <mxRectangle width="150" height="30" as="alternateBounds" />
          </mxGeometry>
        </mxCell>
        <mxCell id="OZ4eQoqyO7t-_9fUV_E0-32" value="" style="shape=tableRow;horizontal=0;startSize=0;swimlaneHead=0;swimlaneBody=0;fillColor=none;collapsible=0;dropTarget=0;points=[[0,0.5],[1,0.5]];portConstraint=eastwest;top=0;left=0;right=0;bottom=0;" vertex="1" parent="OZ4eQoqyO7t-_9fUV_E0-25">
          <mxGeometry y="90" width="180" height="30" as="geometry" />
        </mxCell>
        <mxCell id="OZ4eQoqyO7t-_9fUV_E0-33" value="" style="shape=partialRectangle;connectable=0;fillColor=none;top=0;left=0;bottom=0;right=0;editable=1;overflow=hidden;whiteSpace=wrap;html=1;" vertex="1" parent="OZ4eQoqyO7t-_9fUV_E0-32">
          <mxGeometry width="30" height="30" as="geometry">
            <mxRectangle width="30" height="30" as="alternateBounds" />
          </mxGeometry>
        </mxCell>
        <mxCell id="OZ4eQoqyO7t-_9fUV_E0-34" value="구매일자" style="shape=partialRectangle;connectable=0;fillColor=none;top=0;left=0;bottom=0;right=0;align=left;spacingLeft=6;overflow=hidden;whiteSpace=wrap;html=1;" vertex="1" parent="OZ4eQoqyO7t-_9fUV_E0-32">
          <mxGeometry x="30" width="150" height="30" as="geometry">
            <mxRectangle width="150" height="30" as="alternateBounds" />
          </mxGeometry>
        </mxCell>
        <mxCell id="OZ4eQoqyO7t-_9fUV_E0-47" value="제품" style="shape=table;startSize=30;container=1;collapsible=1;childLayout=tableLayout;fixedRows=1;rowLines=0;fontStyle=1;align=center;resizeLast=1;html=1;" vertex="1" parent="1">
          <mxGeometry x="630" y="320" width="180" height="150" as="geometry" />
        </mxCell>
        <mxCell id="OZ4eQoqyO7t-_9fUV_E0-48" value="" style="shape=tableRow;horizontal=0;startSize=0;swimlaneHead=0;swimlaneBody=0;fillColor=none;collapsible=0;dropTarget=0;points=[[0,0.5],[1,0.5]];portConstraint=eastwest;top=0;left=0;right=0;bottom=1;" vertex="1" parent="OZ4eQoqyO7t-_9fUV_E0-47">
          <mxGeometry y="30" width="180" height="30" as="geometry" />
        </mxCell>
        <mxCell id="OZ4eQoqyO7t-_9fUV_E0-49" value="PK" style="shape=partialRectangle;connectable=0;fillColor=none;top=0;left=0;bottom=0;right=0;fontStyle=1;overflow=hidden;whiteSpace=wrap;html=1;" vertex="1" parent="OZ4eQoqyO7t-_9fUV_E0-48">
          <mxGeometry width="30" height="30" as="geometry">
            <mxRectangle width="30" height="30" as="alternateBounds" />
          </mxGeometry>
        </mxCell>
        <mxCell id="OZ4eQoqyO7t-_9fUV_E0-50" value="제품코드" style="shape=partialRectangle;connectable=0;fillColor=none;top=0;left=0;bottom=0;right=0;align=left;spacingLeft=6;fontStyle=5;overflow=hidden;whiteSpace=wrap;html=1;" vertex="1" parent="OZ4eQoqyO7t-_9fUV_E0-48">
          <mxGeometry x="30" width="150" height="30" as="geometry">
            <mxRectangle width="150" height="30" as="alternateBounds" />
          </mxGeometry>
        </mxCell>
        <mxCell id="OZ4eQoqyO7t-_9fUV_E0-51" value="" style="shape=tableRow;horizontal=0;startSize=0;swimlaneHead=0;swimlaneBody=0;fillColor=none;collapsible=0;dropTarget=0;points=[[0,0.5],[1,0.5]];portConstraint=eastwest;top=0;left=0;right=0;bottom=0;" vertex="1" parent="OZ4eQoqyO7t-_9fUV_E0-47">
          <mxGeometry y="60" width="180" height="30" as="geometry" />
        </mxCell>
        <mxCell id="OZ4eQoqyO7t-_9fUV_E0-52" value="" style="shape=partialRectangle;connectable=0;fillColor=none;top=0;left=0;bottom=0;right=0;editable=1;overflow=hidden;whiteSpace=wrap;html=1;" vertex="1" parent="OZ4eQoqyO7t-_9fUV_E0-51">
          <mxGeometry width="30" height="30" as="geometry">
            <mxRectangle width="30" height="30" as="alternateBounds" />
          </mxGeometry>
        </mxCell>
        <mxCell id="OZ4eQoqyO7t-_9fUV_E0-53" value="제품명" style="shape=partialRectangle;connectable=0;fillColor=none;top=0;left=0;bottom=0;right=0;align=left;spacingLeft=6;overflow=hidden;whiteSpace=wrap;html=1;" vertex="1" parent="OZ4eQoqyO7t-_9fUV_E0-51">
          <mxGeometry x="30" width="150" height="30" as="geometry">
            <mxRectangle width="150" height="30" as="alternateBounds" />
          </mxGeometry>
        </mxCell>
        <mxCell id="OZ4eQoqyO7t-_9fUV_E0-54" value="" style="shape=tableRow;horizontal=0;startSize=0;swimlaneHead=0;swimlaneBody=0;fillColor=none;collapsible=0;dropTarget=0;points=[[0,0.5],[1,0.5]];portConstraint=eastwest;top=0;left=0;right=0;bottom=0;" vertex="1" parent="OZ4eQoqyO7t-_9fUV_E0-47">
          <mxGeometry y="90" width="180" height="30" as="geometry" />
        </mxCell>
        <mxCell id="OZ4eQoqyO7t-_9fUV_E0-55" value="" style="shape=partialRectangle;connectable=0;fillColor=none;top=0;left=0;bottom=0;right=0;editable=1;overflow=hidden;whiteSpace=wrap;html=1;" vertex="1" parent="OZ4eQoqyO7t-_9fUV_E0-54">
          <mxGeometry width="30" height="30" as="geometry">
            <mxRectangle width="30" height="30" as="alternateBounds" />
          </mxGeometry>
        </mxCell>
        <mxCell id="OZ4eQoqyO7t-_9fUV_E0-56" value="제품구분" style="shape=partialRectangle;connectable=0;fillColor=none;top=0;left=0;bottom=0;right=0;align=left;spacingLeft=6;overflow=hidden;whiteSpace=wrap;html=1;" vertex="1" parent="OZ4eQoqyO7t-_9fUV_E0-54">
          <mxGeometry x="30" width="150" height="30" as="geometry">
            <mxRectangle width="150" height="30" as="alternateBounds" />
          </mxGeometry>
        </mxCell>
        <mxCell id="OZ4eQoqyO7t-_9fUV_E0-57" value="" style="shape=tableRow;horizontal=0;startSize=0;swimlaneHead=0;swimlaneBody=0;fillColor=none;collapsible=0;dropTarget=0;points=[[0,0.5],[1,0.5]];portConstraint=eastwest;top=0;left=0;right=0;bottom=0;" vertex="1" parent="OZ4eQoqyO7t-_9fUV_E0-47">
          <mxGeometry y="120" width="180" height="30" as="geometry" />
        </mxCell>
        <mxCell id="OZ4eQoqyO7t-_9fUV_E0-58" value="" style="shape=partialRectangle;connectable=0;fillColor=none;top=0;left=0;bottom=0;right=0;editable=1;overflow=hidden;whiteSpace=wrap;html=1;" vertex="1" parent="OZ4eQoqyO7t-_9fUV_E0-57">
          <mxGeometry width="30" height="30" as="geometry">
            <mxRectangle width="30" height="30" as="alternateBounds" />
          </mxGeometry>
        </mxCell>
        <mxCell id="OZ4eQoqyO7t-_9fUV_E0-59" value="가격" style="shape=partialRectangle;connectable=0;fillColor=none;top=0;left=0;bottom=0;right=0;align=left;spacingLeft=6;overflow=hidden;whiteSpace=wrap;html=1;" vertex="1" parent="OZ4eQoqyO7t-_9fUV_E0-57">
          <mxGeometry x="30" width="150" height="30" as="geometry">
            <mxRectangle width="150" height="30" as="alternateBounds" />
          </mxGeometry>
        </mxCell>
        <mxCell id="OZ4eQoqyO7t-_9fUV_E0-60" value="지역" style="shape=table;startSize=30;container=1;collapsible=1;childLayout=tableLayout;fixedRows=1;rowLines=0;fontStyle=1;align=center;resizeLast=1;html=1;" vertex="1" parent="1">
          <mxGeometry x="350" y="520" width="180" height="90" as="geometry" />
        </mxCell>
        <mxCell id="OZ4eQoqyO7t-_9fUV_E0-61" value="" style="shape=tableRow;horizontal=0;startSize=0;swimlaneHead=0;swimlaneBody=0;fillColor=none;collapsible=0;dropTarget=0;points=[[0,0.5],[1,0.5]];portConstraint=eastwest;top=0;left=0;right=0;bottom=1;" vertex="1" parent="OZ4eQoqyO7t-_9fUV_E0-60">
          <mxGeometry y="30" width="180" height="30" as="geometry" />
        </mxCell>
        <mxCell id="OZ4eQoqyO7t-_9fUV_E0-62" value="PK" style="shape=partialRectangle;connectable=0;fillColor=none;top=0;left=0;bottom=0;right=0;fontStyle=1;overflow=hidden;whiteSpace=wrap;html=1;" vertex="1" parent="OZ4eQoqyO7t-_9fUV_E0-61">
          <mxGeometry width="30" height="30" as="geometry">
            <mxRectangle width="30" height="30" as="alternateBounds" />
          </mxGeometry>
        </mxCell>
        <mxCell id="OZ4eQoqyO7t-_9fUV_E0-63" value="지역코드" style="shape=partialRectangle;connectable=0;fillColor=none;top=0;left=0;bottom=0;right=0;align=left;spacingLeft=6;fontStyle=5;overflow=hidden;whiteSpace=wrap;html=1;" vertex="1" parent="OZ4eQoqyO7t-_9fUV_E0-61">
          <mxGeometry x="30" width="150" height="30" as="geometry">
            <mxRectangle width="150" height="30" as="alternateBounds" />
          </mxGeometry>
        </mxCell>
        <mxCell id="OZ4eQoqyO7t-_9fUV_E0-64" value="" style="shape=tableRow;horizontal=0;startSize=0;swimlaneHead=0;swimlaneBody=0;fillColor=none;collapsible=0;dropTarget=0;points=[[0,0.5],[1,0.5]];portConstraint=eastwest;top=0;left=0;right=0;bottom=0;" vertex="1" parent="OZ4eQoqyO7t-_9fUV_E0-60">
          <mxGeometry y="60" width="180" height="30" as="geometry" />
        </mxCell>
        <mxCell id="OZ4eQoqyO7t-_9fUV_E0-65" value="" style="shape=partialRectangle;connectable=0;fillColor=none;top=0;left=0;bottom=0;right=0;editable=1;overflow=hidden;whiteSpace=wrap;html=1;" vertex="1" parent="OZ4eQoqyO7t-_9fUV_E0-64">
          <mxGeometry width="30" height="30" as="geometry">
            <mxRectangle width="30" height="30" as="alternateBounds" />
          </mxGeometry>
        </mxCell>
        <mxCell id="OZ4eQoqyO7t-_9fUV_E0-66" value="지역명" style="shape=partialRectangle;connectable=0;fillColor=none;top=0;left=0;bottom=0;right=0;align=left;spacingLeft=6;overflow=hidden;whiteSpace=wrap;html=1;" vertex="1" parent="OZ4eQoqyO7t-_9fUV_E0-64">
          <mxGeometry x="30" width="150" height="30" as="geometry">
            <mxRectangle width="150" height="30" as="alternateBounds" />
          </mxGeometry>
        </mxCell>
        <mxCell id="OZ4eQoqyO7t-_9fUV_E0-75" value="" style="edgeStyle=entityRelationEdgeStyle;fontSize=12;html=1;endArrow=ERoneToMany;startArrow=ERmandOne;rounded=0;" edge="1" parent="1" source="OZ4eQoqyO7t-_9fUV_E0-61" target="OZ4eQoqyO7t-_9fUV_E0-2">
          <mxGeometry width="100" height="100" relative="1" as="geometry">
            <mxPoint x="400" y="490" as="sourcePoint" />
            <mxPoint x="500" y="390" as="targetPoint" />
          </mxGeometry>
        </mxCell>
        <mxCell id="OZ4eQoqyO7t-_9fUV_E0-131" value="Table" style="shape=table;startSize=30;container=1;collapsible=1;childLayout=tableLayout;fixedRows=1;rowLines=0;fontStyle=1;align=center;resizeLast=1;html=1;whiteSpace=wrap;" vertex="1" parent="1">
          <mxGeometry x="80" y="610" width="180" height="150" as="geometry" />
        </mxCell>
        <mxCell id="OZ4eQoqyO7t-_9fUV_E0-132" value="" style="shape=tableRow;horizontal=0;startSize=0;swimlaneHead=0;swimlaneBody=0;fillColor=none;collapsible=0;dropTarget=0;points=[[0,0.5],[1,0.5]];portConstraint=eastwest;top=0;left=0;right=0;bottom=0;html=1;" vertex="1" parent="OZ4eQoqyO7t-_9fUV_E0-131">
          <mxGeometry y="30" width="180" height="30" as="geometry" />
        </mxCell>
        <mxCell id="OZ4eQoqyO7t-_9fUV_E0-133" value="PK,FK1" style="shape=partialRectangle;connectable=0;fillColor=none;top=0;left=0;bottom=0;right=0;fontStyle=1;overflow=hidden;html=1;whiteSpace=wrap;" vertex="1" parent="OZ4eQoqyO7t-_9fUV_E0-132">
          <mxGeometry width="60" height="30" as="geometry">
            <mxRectangle width="60" height="30" as="alternateBounds" />
          </mxGeometry>
        </mxCell>
        <mxCell id="OZ4eQoqyO7t-_9fUV_E0-134" value="Row 1" style="shape=partialRectangle;connectable=0;fillColor=none;top=0;left=0;bottom=0;right=0;align=left;spacingLeft=6;fontStyle=5;overflow=hidden;html=1;whiteSpace=wrap;" vertex="1" parent="OZ4eQoqyO7t-_9fUV_E0-132">
          <mxGeometry x="60" width="120" height="30" as="geometry">
            <mxRectangle width="120" height="30" as="alternateBounds" />
          </mxGeometry>
        </mxCell>
        <mxCell id="OZ4eQoqyO7t-_9fUV_E0-135" value="" style="shape=tableRow;horizontal=0;startSize=0;swimlaneHead=0;swimlaneBody=0;fillColor=none;collapsible=0;dropTarget=0;points=[[0,0.5],[1,0.5]];portConstraint=eastwest;top=0;left=0;right=0;bottom=1;html=1;" vertex="1" parent="OZ4eQoqyO7t-_9fUV_E0-131">
          <mxGeometry y="60" width="180" height="30" as="geometry" />
        </mxCell>
        <mxCell id="OZ4eQoqyO7t-_9fUV_E0-136" value="PK,FK2" style="shape=partialRectangle;connectable=0;fillColor=none;top=0;left=0;bottom=0;right=0;fontStyle=1;overflow=hidden;html=1;whiteSpace=wrap;" vertex="1" parent="OZ4eQoqyO7t-_9fUV_E0-135">
          <mxGeometry width="60" height="30" as="geometry">
            <mxRectangle width="60" height="30" as="alternateBounds" />
          </mxGeometry>
        </mxCell>
        <mxCell id="OZ4eQoqyO7t-_9fUV_E0-137" value="Row 2" style="shape=partialRectangle;connectable=0;fillColor=none;top=0;left=0;bottom=0;right=0;align=left;spacingLeft=6;fontStyle=5;overflow=hidden;html=1;whiteSpace=wrap;" vertex="1" parent="OZ4eQoqyO7t-_9fUV_E0-135">
          <mxGeometry x="60" width="120" height="30" as="geometry">
            <mxRectangle width="120" height="30" as="alternateBounds" />
          </mxGeometry>
        </mxCell>
        <mxCell id="OZ4eQoqyO7t-_9fUV_E0-138" value="" style="shape=tableRow;horizontal=0;startSize=0;swimlaneHead=0;swimlaneBody=0;fillColor=none;collapsible=0;dropTarget=0;points=[[0,0.5],[1,0.5]];portConstraint=eastwest;top=0;left=0;right=0;bottom=0;html=1;" vertex="1" parent="OZ4eQoqyO7t-_9fUV_E0-131">
          <mxGeometry y="90" width="180" height="30" as="geometry" />
        </mxCell>
        <mxCell id="OZ4eQoqyO7t-_9fUV_E0-139" value="" style="shape=partialRectangle;connectable=0;fillColor=none;top=0;left=0;bottom=0;right=0;editable=1;overflow=hidden;html=1;whiteSpace=wrap;" vertex="1" parent="OZ4eQoqyO7t-_9fUV_E0-138">
          <mxGeometry width="60" height="30" as="geometry">
            <mxRectangle width="60" height="30" as="alternateBounds" />
          </mxGeometry>
        </mxCell>
        <mxCell id="OZ4eQoqyO7t-_9fUV_E0-140" value="Row 3" style="shape=partialRectangle;connectable=0;fillColor=none;top=0;left=0;bottom=0;right=0;align=left;spacingLeft=6;overflow=hidden;html=1;whiteSpace=wrap;" vertex="1" parent="OZ4eQoqyO7t-_9fUV_E0-138">
          <mxGeometry x="60" width="120" height="30" as="geometry">
            <mxRectangle width="120" height="30" as="alternateBounds" />
          </mxGeometry>
        </mxCell>
        <mxCell id="OZ4eQoqyO7t-_9fUV_E0-141" value="" style="shape=tableRow;horizontal=0;startSize=0;swimlaneHead=0;swimlaneBody=0;fillColor=none;collapsible=0;dropTarget=0;points=[[0,0.5],[1,0.5]];portConstraint=eastwest;top=0;left=0;right=0;bottom=0;html=1;" vertex="1" parent="OZ4eQoqyO7t-_9fUV_E0-131">
          <mxGeometry y="120" width="180" height="30" as="geometry" />
        </mxCell>
        <mxCell id="OZ4eQoqyO7t-_9fUV_E0-142" value="" style="shape=partialRectangle;connectable=0;fillColor=none;top=0;left=0;bottom=0;right=0;editable=1;overflow=hidden;html=1;whiteSpace=wrap;" vertex="1" parent="OZ4eQoqyO7t-_9fUV_E0-141">
          <mxGeometry width="60" height="30" as="geometry">
            <mxRectangle width="60" height="30" as="alternateBounds" />
          </mxGeometry>
        </mxCell>
        <mxCell id="OZ4eQoqyO7t-_9fUV_E0-143" value="Row 4" style="shape=partialRectangle;connectable=0;fillColor=none;top=0;left=0;bottom=0;right=0;align=left;spacingLeft=6;overflow=hidden;html=1;whiteSpace=wrap;" vertex="1" parent="OZ4eQoqyO7t-_9fUV_E0-141">
          <mxGeometry x="60" width="120" height="30" as="geometry">
            <mxRectangle width="120" height="30" as="alternateBounds" />
          </mxGeometry>
        </mxCell>
      </root>
    </mxGraphModel>
  </diagram>
</mxfile>
